<?xml version="1.0" encoding="UTF-8" standalone="no"?>
<svg
   width="40.284mm"
   height="40.284mm"
   version="1.1"
   viewBox="0 0 40.284 40.284"
   xml:space="preserve"
   id="nucleosome"
   sodipodi:docname="nucleosome_topview.svg"
   inkscape:version="1.3.2 (091e20e, 2023-11-25)"
   xmlns:inkscape="http://www.inkscape.org/namespaces/inkscape"
   xmlns:sodipodi="http://sodipodi.sourceforge.net/DTD/sodipodi-0.dtd"
   xmlns="http://www.w3.org/2000/svg"
   xmlns:svg="http://www.w3.org/2000/svg"
   xmlns:rdf="http://www.w3.org/1999/02/22-rdf-syntax-ns#"
   xmlns:cc="http://creativecommons.org/ns#"
   xmlns:dc="http://purl.org/dc/elements/1.1/"><title
     id="title1">Nucleosome</title><defs
     id="defs1" /><sodipodi:namedview
     id="namedview1"
     pagecolor="#ffffff"
     bordercolor="#666666"
     borderopacity="1.0"
     inkscape:showpageshadow="2"
     inkscape:pageopacity="0.0"
     inkscape:pagecheckerboard="0"
     inkscape:deskcolor="#d1d1d1"
     inkscape:document-units="mm"
     inkscape:zoom="3.2858533"
     inkscape:cx="56.910636"
     inkscape:cy="82.170436"
     inkscape:window-width="1200"
     inkscape:window-height="809"
     inkscape:window-x="293"
     inkscape:window-y="44"
     inkscape:window-maximized="0"
     inkscape:current-layer="particles" /><g
     transform="translate(-64.826 -46.317)"
     id="particles"><path
       d="m82.723 60.194c-0.55149-1.4873-0.72123-3.2717-0.65607-4.8242 0.01091-0.26757 0.23646-0.47575 0.50404-0.46519 0.26874 0.01066 0.47756 0.23782 0.46561 0.5065-0.06071 1.4468 0.11252 3.1377 0.59724 4.445"
       color="#000000"
       fill="#fb9a99"
       stop-color="#000000"
       stroke="#000"
       stroke-linecap="round"
       stroke-linejoin="round"
       stroke-width=".176"
       style="-inkscape-stroke:none;font-variation-settings:normal"
       id="H2B:2:tail_C" /><path
       d="m81.068 57.186c-0.84373-1.7447-2.8908-2.3595-3.9492-2.9922-0.05837-0.03489-0.02533-0.01448-0.06641-0.04492 0.20876-0.12837 0.52691-0.2944 1.0059-0.67773 1.2042-0.96377 2.5997-2.8148 2.5918-4.7598-0.0016-0.2972-0.24382-0.53683-0.54102-0.53516l3e-6 -2e-6c-0.29643 0.0016-0.53575 0.24263-0.53516 0.53906 0.0056 1.3752-1.2226 3.1438-2.1875 3.916-0.48557 0.38862-0.92736 0.54806-1.3047 0.88672-0.09433 0.08467-0.19786 0.19406-0.26172 0.37305-0.06385 0.17899-0.04238 0.4184 0.03711 0.58008 0.15897 0.32335 0.38945 0.45353 0.70898 0.64453 1.2578 0.75185 2.9629 1.3599 3.5332 2.5391"
       color="#000000"
       fill="#ff9"
       stop-color="#000000"
       stroke="#000"
       stroke-linecap="round"
       stroke-linejoin="round"
       stroke-width=".176"
       style="-inkscape-stroke:none;font-variation-settings:normal"
       id="H2A:2:tail_N" /><path
       d="m78.599 58.281c-0.02435 0.10399-0.03863 0.21008-0.04263 0.31679-0.0227 0.91615 0.70038 1.676 1.6145 1.6966l0.56066 0.01414-3.8783 5.4074c-0.77661 1.0833-0.02625 2.594 1.3035 2.6242l3.6934 0.08632c0.39801 0.0093 0.78623-0.1255 1.0934-0.37974l-7.22e-4 -4.33e-4c0.37062-0.30654 0.5903-0.75914 0.60198-1.2403 0.0222-0.9153-0.69995-1.6744-1.6132-1.6957l-0.56352-0.01382 3.8787-5.4078c0.77575-1.0825 0.02712-2.592-1.3014-2.624l-3.6954-0.08662c-0.37947-0.0076-0.75018 0.1159-1.05 0.34964-0.34229 0.27715-0.58357 0.58315-0.60093 0.95314z"
       color="#000000"
       fill="#ff9"
       stop-color="#000000"
       stroke="#000"
       stroke-linecap="round"
       stroke-linejoin="round"
       stroke-width=".176"
       style="-inkscape-stroke:none;font-variation-settings:normal"
       id="H2A:2:HFD" /><path
       d="m79.233 67.041c-0.40776 0.22783-0.79092 0.56993-0.93948 1.1032-0.20737 0.74433 0.10337 1.4493 0.40233 1.9708 0.39935 0.75017 1.0757 1.3693 1.5888 1.9963 0.33584 0.41387 0.51084 0.72385 0.53793 1.0584 0.0271 0.33457-0.08754 0.77317-0.51949 1.4504-0.43197 0.67724-1.171 1.5639-2.3032 2.7469-0.18208 0.18893-0.17587 0.48993 0.01393 0.6713 0.18919 0.18013 0.4885 0.17315 0.669-0.01531 1.1529-1.2046 1.9296-2.123 2.4216-2.8946 0.49204-0.77151 0.71251-1.4221 0.66286-2.035-0.04965-0.61295-0.36633-1.1088-0.74756-1.5787-0.53076-0.64668-1.1388-1.248-1.5009-1.8703-0.2425-0.42297-0.40058-0.92792-0.31177-1.2467 0.04311-0.15492 0.16629-0.29994 0.3363-0.4251"
       color="#000000"
       fill="#ff9"
       stroke="#000"
       stroke-linecap="round"
       stroke-linejoin="round"
       stroke-width=".176"
       id="H2A:2:tail_C" /><path
       d="m80.078 48.551 0.07693 0.14609 0.16867 0.54366-0.23782 0.3833-0.44408 0.27768-0.41881 0.74476-0.13999 0.24246-0.3388 1.0938-0.3848 1.056-0.49236-0.03215-0.67792 0.34487-0.39623 1.0372 0.64819 0.61531 0.88634 0.20337 0.75787 0.49709 0.45012 0.43395 1.1706 0.47899-0.48169 1.2031-0.61104-0.15499 1.0655-0.51779 0.65292 1.075-0.96387 0.7634-0.26057 0.44522-1.0783 0.17595 0.66675-0.03929 0.08451-1.1704 1.2053-0.48325-0.23032-1.0334-0.38992 0.75615 1.0415 0.78545 0.77208-1.0662-0.5716-0.45474 0.08067 1.1695 1.2747 0.09129 0.2054-1.1797-0.71406 0.22242 0.5683 1.1664 1.1692-0.54318 0.659 0.8261 0.83421-0.9257 0.27618-1.271-0.46049-0.20707-0.72208 0.59489 0.17013-0.20024-1.0249-0.12073 0.21983 1.0786 0.03028 0.7973-1.2953-0.02024-0.26943 0.18311 0.78543 1.0479-0.48588 0.46086-1.2549-0.16967 0.21242 0.64179 0.51678 1.0273-1 0.03338-0.85467-0.04738 0.63648 0.97162 0.01332 0.77881-1.263-0.28872-0.3055 0.35392 0.73554 1.0886-0.59575 0.44677-1.1963-0.33748 0.196 0.65408 0.33958 1.0899-0.99503-0.14242-0.81781-0.23404 0.38467 1.1018-0.22513 0.64015-1.1847-0.54286-0.31096 0.31934 0.43099 1.217-0.81382 0.09127-0.94045-0.55231-0.09915-1.0464-0.17353-1.2524 0.57198-0.51998 1.2175 0.12346-0.01528 0.35813 1.0068 0.16122 0.11312 1.2713 0.26418-0.34617 0.92386-0.82706 0.52408 0.95425 0.02025 0.78276 0.56894-0.95023 0.96025-0.17267 0.20848 1.2853 0.03372 0.16579 1.2167-0.203 0.89801 0.26707 0.64065-1.0978-1.0371-0.6974-0.17921 0.72254 1.2273-0.26476-0.15972-1.2667-1.0632 0.01883 0.57221 0.74043-0.67531 0.27943-0.97365-0.79302-1.1895 0.34899-1.0444-0.28274-1.1064-0.13554-0.89035 0.89923 0.85209 0.47413 0.15453 1.1993 0.8519 0.85304 0.21475 0.53211-0.44392 1.2158 1.0003 0.83119 0.219 1.1963 1.1389 0.63146-0.01563 1.0334 0.34558 0.87584-1.1092-0.25492-0.76129 0.361-0.41416 1.2152 0.53921 0.81061-0.67363 0.38628-0.38088 0.01233-0.03069-0.11653-0.24384-0.13076-0.3556-0.05104 0.01462-0.04973-0.46181-0.23203-0.46005 0.17257 0.1085 0.15388 0.06403-0.27658"
       fill="none"
       stroke="#b3b300"
       stroke-linecap="round"
       stroke-linejoin="round"
       stroke-width=".176"
       id="H2A:2:trajectory" /><path
       d="m84.95 53.092c7.2533-0.30226 13.167 5.8494 13.229 13.071l-1.702 0.01503c-0.054312-6.308-5.2077-11.652-11.456-11.392-5.514 0.22969-10.342 5.078-9.9519 10.794l-1.6961 0.11497c-0.45887-6.7163 5.1135-12.334 11.578-12.604z"
       color="#000000"
       fill-rule="evenodd"
       opacity=".5"
       style="-inkscape-stroke:none"
       id="DNA:segment_4" /><path
       d="m78.055 58.153c0.10699 0.0056 0.21319 0.02153 0.31714 0.04753 0.88917 0.23432 1.42 1.1437 1.1853 2.0304l-0.14252 0.54431 6.2911-2.2256c1.2603-0.44552 2.507 0.70011 2.1658 1.9901l-0.94548 3.5837c-0.10186 0.3862-0.33992 0.72265-0.67048 0.94762l-2.62e-4 -8.12e-4c-0.39862 0.27146-0.89595 0.35661-1.3629 0.23332-0.88821-0.23456-1.4186-1.1428-1.1848-2.0289l0.14363-0.54697-6.2915 2.2259c-1.2593 0.44491-2.5053-0.6987-2.1661-1.9881l0.94577-3.5857c0.09841-0.36783 0.32062-0.69059 0.62936-0.91414 0.21655-0.11302 0.23649-0.30926 1.0859-0.31265z"
       color="#000000"
       fill="#fb9a99"
       stop-color="#000000"
       stroke="#000"
       stroke-linecap="round"
       stroke-linejoin="round"
       stroke-width=".176"
       style="-inkscape-stroke:none;font-variation-settings:normal"
       id="H2B:2:HFD" /><path
       d="m77.586 58.689c-0.58667-0.45585-1.5169-1.2103-2.4428-1.769-0.22752-0.13728-0.48456-0.20308-0.7215-0.33161 0.32679-0.32837 0.69536-0.55807 0.99856-0.91012 1.6985-1.9722 2.9735-4.1327 2.9735-4.1327 0.13648-0.23031 0.06068-0.52763-0.16939-0.6645l3e-6 3e-6c-0.23031-0.13648-0.52763-0.06068-0.6645 0.16939 0 0-1.2496 2.1058-2.8759 3.9942-0.38238 0.444-0.80126 0.72044-1.2101 1.107-0.38691-0.17059-0.75687-0.418-1.1444-0.52574-0.95294-0.26498-1.9259-0.31277-2.7207 0.1794-0.49989 0.30956-0.68113 0.85523-0.7282 1.3814-0.02354 0.2631-7e-3 0.53127 0.08082 0.7882 0.08783 0.25693 0.26265 0.5178 0.54789 0.66295 0.99798 0.50783 2.1168 0.20455 3.1126-0.4119 0.36504-0.22597 0.67592-0.63325 1.0264-0.93322 0.33681 0.17012 0.6678 0.26227 0.99306 0.45853 0.80729 0.48711 1.5472 1.0198 2.099 1.4425m-4.6704-2.6312c0.20096 0.05588 0.42346 0.21286 0.63395 0.29382-0.20035 0.15568-0.39706 0.42129-0.59301 0.54259-0.85021 0.5263-1.5612 0.68028-2.1612 0.37493-0.01059-0.0053-0.03851-0.02433-0.06903-0.11357-0.03051-0.08924-0.04793-0.23391-0.03432-0.38622 0.02726-0.30463 0.20923-0.60366 0.27374-0.64361 0.45951-0.28456 1.1351-0.29449 1.9499-0.06794z"
       color="#000000"
       fill="#fb9a99"
       stop-color="#000000"
       stroke="#000"
       stroke-linecap="round"
       stroke-linejoin="round"
       stroke-width=".176"
       style="-inkscape-stroke:none;font-variation-settings:normal"
       id="H2B:2:tail_N" /><path
       d="m78.419 51.085 0.04177 0.53784 0.06169 0.7944 0.04205 0.54142-0.47789 0.11072-0.16947-0.30573 0.03404-0.46559-0.25345-0.18948-0.15688 0.71447-0.49216 0.4763-0.1749 0.07382-0.8046 0.6135-0.68332 0.29958-0.67426 0.34202-0.48694 0.93883-0.36565 0.6294-1.0274 0.02515-0.71723 0.75378-0.3183 0.55196-0.88528 0.21119-0.53742-0.34349-0.25911-0.26483-0.0087 0.10265 0.12609-0.17853-0.22174-0.14023 0.66442-0.1082 1.0549 0.42096 0.89274 0.49984 1.0928-0.61013 0.77939 0.2641 1.1064 0.66194 1.1181-0.52404 0.19786 0.27116 0.81577 0.933 0.56345 0.18267-0.19973 1.0717 0.37502 0.43099-1.1668 0.58203-0.47838-0.78207 1.106 0.10685 0.05114 1.3017-1.2292 0.05497 0.33617-0.69541 0.99902 0.82454-0.82438 1.0152-0.77741-0.48951 1.0356-0.12961 0.36127 1.2403-1.1962 0.50152-1.1118-0.67304-0.83363 0.84043 0.67202 0.49958-0.30266-0.5201 0.55768-0.04538-0.46043 0.11037 0.20223-0.9233 0.7202 0.84947 0.73236 0.25521 0.13069-1.2894 0.43948-0.16506 0.88232 0.954 0.40038-0.60308 0.09418-1.1414 0.71202 0.61159 0.77024 0.52216 0.23917-1.14 0.29209-0.59114 0.81075 0.9886 0.61916 0.0078 0.09405-1.3131 0.59746 0.05038 0.79494 0.96812 0.39233-0.65961 0.10042-1.1416 0.68976 0.56061 0.87281 0.49358 0.05032-1.1414 0.21442-0.62088 0.99507 0.81701 0.49849-0.15462 0.01958-1.3056 0.52645 0.10126 0.93876 0.82679 0.2953-0.81439-0.03932-1.0332-0.89765-0.61936-1.0082-0.73021-0.82466 0.25698-0.67639 1.071-0.07769 0.0093-0.47406 0.82646 1.1852 0.57398-0.14264 0.33243-1.2002 0.47532 0.44718 0.66792 0.95118 0.51819-0.82292 0.27127-0.79104 0.62691 1.0131 0.70086 0.34915 0.30997-1.2062 0.32188-0.59527 0.60397 0.29871 1.1492 0.59348-0.10154-0.98396 0.15162-0.7749-0.82368 0.97631-0.8454 0.19903-0.09247-1.2511-0.29029-0.07232-0.83761 1.0586-0.64332-0.53937-0.07041-1.1409-0.45475 0.59746-0.89016 0.76697-0.37752-1.045-0.11008-0.64613-0.72121 0.98902-0.83966 0.17961-0.07212-1.2715-0.27034 0.01004-0.87316 1.0394-0.62121-0.44306-0.08873-0.87812-0.54473-0.0052-0.86286"
       fill="none"
       stroke="#e31a1c"
       stroke-linecap="round"
       stroke-linejoin="round"
       stroke-width=".176"
       id="H2B:2:trajectory" /><path
       d="m74.256 66.838-0.88353-1.1423 1.6961-0.11497z"
       fill-rule="evenodd"
       opacity=".5"
       stop-color="#000000"
       style="-inkscape-stroke:none;font-variation-settings:normal"
       id="DNA:segment_5" /><path
       d="m73.94 78.936c-0.44024 0.5669-0.70245 1.3197-0.87315 2.0862s-0.24889 1.5318-0.38073 2.1442c-0.06591 0.30618-0.13661 0.57641-0.29656 0.82602s-0.52514 0.47307-0.86936 0.42447c-0.38199-0.05393-0.70651-0.2982-0.91428-0.6059-0.20776-0.3077-0.32942-0.68186-0.4012-1.1098-0.14356-0.8559-0.07611-1.941 0.20654-3.1554 0.39195-1.684 0.37785-3.3854 0.17863-4.7492-0.09961-0.68185-0.2448-1.2803-0.40384-1.7423-0.15903-0.46207-0.3494-0.79422-0.44455-0.89958-0.1792-0.19905-0.16328-0.50565 0.0356-0.68506 0.09517-0.08617 0.2206-0.13112 0.34884-0.12498 0.12898 0.0067 0.24998 0.06444 0.33622 0.16058 0.26646 0.29504 0.4579 0.70238 0.64084 1.2339 0.18294 0.53152 0.34024 1.1802 0.44767 1.9156 0.21486 1.4708 0.23147 3.2829-0.19401 5.1109-0.26056 1.1195-0.30642 2.1078-0.19431 2.7762 0.05605 0.33419 0.15237 0.58341 0.24869 0.72605 0.07134 0.10566 0.12382 0.1182 0.18077 0.13937 0.03902-0.07766 0.09551-0.21761 0.14474-0.44631 0.11207-0.52056 0.19775-1.3143 0.38382-2.1497 0.18607-0.83542 0.47502-1.7276 1.0528-2.4716 0.57777-0.744 1.428-1.3004 2.656-1.4438 0.67625-0.10138 1.0042-0.24234 1.4887-0.48729-0.36584-0.14316-0.6691-0.411-0.85602-0.75607l-2.905-5.374c-0.2662-0.49308-0.26549-1.0869 0.0019-1.5794l2.2218-4.0932c0.29275-0.53932 0.85946-0.87359 1.4739-0.86937l2.6e-5 -4.7e-5c0.61399 0.0046 1.1755 0.34656 1.4606 0.88948 0 0 1.3283 2.5296 2.6953 4.8552 0.34068 0.57962 0.61219 0.95707 0.93363 1.4627 0.16142-0.50254 0.33497-1.026 0.48425-1.5127 0.26864-0.87726 1.1989-1.3708 2.0775-1.1022 0.87784 0.26883 1.3714 1.197 1.1026 2.0736-0.43575 1.4206-0.92252 2.8764-1.3737 4.2845-0.07223 0.22539-0.20092 0.51791-0.49211 0.79529-0.2912 0.27738-0.76059 0.4729-1.1453 0.49277-0.76946 0.03979-1.0905-0.25778-1.329-0.43735-0.47698-0.3592-0.72758-0.70418-1.0505-1.1361-0.64588-0.86389-1.3651-2.0281-2.077-3.2391-0.65859-1.1204-0.78232-1.3959-1.2828-2.3114l-0.34723 0.64135 2.4782 4.5831c0.40899 0.76151 0.16465 1.7089-0.56185 2.1785-0.15485 0.35375-0.48193 0.67857-0.97881 0.9478-0.62261 0.33738-0.98187 0.47519-1.8705 0.64408-0.99965 0.11669-1.5974 0.52323-2.0377 1.0901z"
       color="#000000"
       fill="#a6cee3"
       stop-color="#000000"
       stroke="#000"
       stroke-linecap="round"
       stroke-linejoin="round"
       stroke-width=".176"
       style="-inkscape-stroke:none;font-variation-settings:normal"
       id="H3:1:HFD" /><path
       d="m70.372 71.369-0.06235 0.3931 0.71808 0.20376 0.31942 0.8408 0.42944 0.83832-0.05266 0.97166-0.0098 0.93225-0.01891 1.0888-0.72188 0.68367 0.14878 1.1156-0.52576 0.79098 0.69051 0.7382 0.54992-0.17822-0.03276 0.284-0.49164-0.24971 0.35113-0.32544 0.09181 0.34819-0.59464-0.54792-0.71362-0.03938-0.15604-0.20875-0.33504-0.2271 0.36257-0.04137-0.32658 0.1804 0.6005 0.15734-0.01075 0.8928 0.65207 0.32959 0.23179 0.79101-0.6797 0.13335-0.0093 0.99791 0.13171 0.09509-0.67914 0.39555 0.42224 0.51934 0.59322-0.0207 0.65473-0.23807 0.13742-0.78529-0.05889-1.0684 0.88059-0.8305 0.14752-0.69959-0.16941-1.0736 1.1108-0.43234 0.9959-0.5884 1.2199 0.42276 0.78613-0.7561 0.47014-1.0081-0.92143-0.0076-0.71234-0.9591 1.1084-0.58622 0.30738-0.18246-1.1933-0.49927 0.15272-0.80112 1.1466-0.41596-0.61275-0.28049-0.98927-0.58448 0.71156-0.77594 0.84632-0.31346-1.0162-0.39609-0.57296-0.65759 0.42431-1.1592-0.67004-0.07873 0.55065-0.14985 0.10224 1.1192 0.22704-0.34366-1.0617-0.25841-0.12354-1.2896-0.39452-0.12981 0.94626 0.75099 0.87851-0.62789-0.44688-1.1736 0.10688 0.37897 1.2244 0.43138 0.36917-1.1321-0.48135-0.66346 0.59992 0.80217 1.1728-0.13048-0.14781-1.3028-0.28467-0.09603 1.2155 0.32919 0.46877-1.0178-0.90106-0.8949-1.1044 0.08738-1.1802-0.17606 0.25857-0.26783-0.95765-0.05166 0.05452 0.56519-0.59498-0.26817-0.58234 1.0553 0.7028-0.15691 1.1081 0.05933-0.36503 1.1562-0.26503 0.40138 1.1667-0.42177 0.58855 0.66665-0.67892 1.0822 0.24513-0.09468 1.288-0.11328 0.0046 0.95883-0.62104 0.85289 0.78083-0.32506 1.0534 0.21534-0.42869 1.1768-0.34272 0.39132 1.1882-0.32662 0.56031 0.61247-0.70772 1.0888 0.3818 0.0035 1.2627-0.03112-0.24246 0.87724-0.51546 0.84491 1.0846-0.07671 0.74225 0.24728-0.70921 1.0808 0.08924 0.41294 1.2973-0.20551 0.03219 0.79018-0.6896 0.87941-1.0812-0.14514-1.2119-0.3842-0.30516-0.27297 0.41109-1.1819 0.55591-0.05448 0.42089-0.97637 1.2363 0.17938-0.38667-0.36965-0.48781-1.1326 1.1377-0.22904 0.69474 0.19207-0.83545-0.69194 0.06191-1.0283 1.3036 0.04985 0.29487 0.05981-0.89085-0.90245 0.49122-0.85873-0.47783-0.96337 0.23013-0.70024-0.23648 0.0028"
       fill="none"
       stroke="#1f78b4"
       stroke-linecap="round"
       stroke-linejoin="round"
       stroke-width=".176"
       id="H3:1:trajectory" /><path
       d="m93.963 71.604c0.3772-0.0221 0.74418-0.12653 1.1205-0.22023 0.75273-0.1874 1.4913-0.32831 2.1301 0 0.62059 0.31895 1.0798 1.1493 1.2192 1.9997 0.13939 0.85036-0.09298 1.6183-0.38056 1.8165-0.97776 0.67391-1.5575 1.298-1.7478 1.9821-0.09515 0.34205-0.06932 0.70601 0.08104 1.0095 0.15037 0.30353 0.40275 0.536 0.70298 0.71179 0.2311 0.13572 0.52847 0.05842 0.66422-0.17266 0.13572-0.2311 0.05842-0.52847-0.17266-0.66422-0.18231-0.10674-0.27958-0.21654-0.32418-0.30656-0.0446-0.09003-0.05888-0.17056-0.01762-0.3189 0.08253-0.29667 0.48182-0.83217 1.3654-1.4412 0.82306-0.56729 0.9632-1.7033 0.78755-2.7749-0.17566-1.0716-0.7184-2.1817-1.7354-2.7044-0.4994-0.25666-1.0067-0.32534-1.487-0.3048l6e-6 2e-6c-0.48031 0.02054-0.93214 0.13081-1.3196 0.22728-0.38749 0.09647-0.72599 0.17935-0.94259 0.19204"
       color="#000000"
       fill="#b2df8a"
       stop-color="#000000"
       stroke="#000"
       stroke-linecap="round"
       stroke-linejoin="round"
       stroke-width=".176"
       style="-inkscape-stroke:none;font-variation-settings:normal"
       id="H4:2:tail_N" /><path
       d="m94.391 71.655c0.24242-0.51313 0.20598-1.114-0.09665-1.5935-0.49122-0.77452-1.5188-1.0039-2.2949-0.51232l-0.47808 0.30287 0.23629-6.6631c0.03723-1.0444-0.8893-1.8621-1.923-1.697l2.08e-4 -0.0016c-0.22375 0.03587-0.43786 0.117-0.62919 0.23841l-3.1396 1.9853c-0.77621 0.49144-1.0071 1.5177-0.51577 2.2921 0.49102 0.77346 1.5171 1.0029 2.293 0.51272l0.47866-0.30246-0.23491 6.6624c-0.04699 1.3336 1.4205 2.1734 2.5503 1.4595l3.0067-1.9015c0.3129-0.21261 0.54051-0.48918 0.74686-0.7817z"
       color="#000000"
       fill="#b2df8a"
       stop-color="#000000"
       stroke="#000"
       stroke-linecap="round"
       stroke-linejoin="round"
       stroke-width=".176"
       style="-inkscape-stroke:none;font-variation-settings:normal"
       id="H4:2:HFD" /><path
       d="m97.518 77.676-0.10751 0.05413-0.27389 0.42872 0.25137 0.31989-0.3334-0.11507-0.47893-0.47055-0.21056-0.499 0.02093-0.82264 0.55661-0.21367 0.50243 0.13754 0.56265-0.23534 0.42126-0.56669-0.02538-0.76581 0.10065-0.77341 0.30065-0.86997-0.05466-0.73238-0.23094-0.89456-0.82407-0.55641-0.49457-0.56079-0.85562-0.36697-1.0375 0.23311-0.66396 0.37661-0.86108 0.3314-1.0841-0.59161-0.03632-0.872-1.027 0.55025 0.65926 1.1263 0.99015-0.6914-0.73082-0.08378 0.527 1.1209-0.51784 0.99879 0.77549-0.12025-0.36652-1.249-1.2584 0.36615 0.26133 0.97653 0.58898-0.83446-1.0302-0.81296-0.7748 1.0222 0.78572 0.2915-0.129-1.2423-1.2919 0.20694 0.1015 1.0521-0.18041 0.91761 0.52981 1.183-0.33148 0.66362-0.18605-0.43127-0.56179 0.52243 0.71234-0.07298-0.95358-0.68243 0.11733-1.0112 1.0448-0.53758-0.61902-0.25089-1.0715-0.39659 0.71508-0.82508 0.5744-0.4863-1.2071-0.22428-0.40265-0.60947 1.102-0.71413-0.1671-0.39675-1.229-0.37195 0.37758-0.6465 0.97312-0.60799-0.75328-0.33926-0.87191-0.55914 0.89031-0.67679 0.70223-0.35625-1.0572-0.42666-0.28352-0.85481 1.2541-0.34021 0.13853-0.26537-1.1225-0.68728 0.46936-0.72214 1.1432-0.1219-0.60013-0.42293-0.72302-0.84864 1.1096-0.46351 0.4344-0.09428 1.0503 0.7353 0.59886 0.9375 0.48656 0.51842-0.73308 0.68563 0.26908-0.27951-0.17976 0.60955-0.93556-0.8763-0.70751 0.3576 0.06167 1.2368-0.36278-0.39454-1.013-0.66769-0.3696 1.0415 0.0506 0.7839-0.6571-0.89607-0.94197-0.04881-0.05592 1.3113-0.1264 0.03344 1.1634 0.551 0.68845-0.97897 1.3049 0.04027 0.64722-0.65414 1.2567-0.32862 0.1673-0.51269-0.42845-1.1512-0.21748-0.77858"
       fill="none"
       stroke="#33a02c"
       stroke-linecap="round"
       stroke-linejoin="round"
       stroke-width=".176"
       id="H4:2:trajectory" /><path
       d="m84.064 80.553c-8.1391 0.1052-14.73-6.8465-14.667-15.014v7.5e-5l1.702 0.01503c-0.05564 7.2506 5.7882 13.397 12.942 13.305"
       color="#000000"
       fill-rule="evenodd"
       opacity=".5"
       style="-inkscape-stroke:none"
       id="DNA:segment_2" /><path
       d="m84.041 78.858c6.6916-0.08642 12.495-5.8011 12.435-12.679l1.702-0.01503c0.0674 7.8319-6.4695 14.291-14.114 14.39"
       color="#000000"
       fill-rule="evenodd"
       opacity=".5"
       style="-inkscape-stroke:none"
       id="DNA:segment_3" /><path
       d="m93.233 77.813c1.2185 0.44535 2.8286 1.6906 4.1985 2.5424 0.68492 0.42586 1.2997 0.774 1.9328 0.83336 0.31654 0.02968 0.66834-0.03765 0.9373-0.25899 0.26897-0.22134 0.42196-0.55054 0.49861-0.93378 0.11713-0.58567-0.0996-1.1205-0.30657-1.7037-0.20696-0.58325-0.44186-1.2088-0.5356-1.8341-0.09372-0.62533-0.05773-1.2357 0.26428-1.8605 0.32197-0.62478 0.94975-1.2867 2.1266-1.938 0.33682-0.18641 0.59411-0.47106 0.69594-0.80517 0.10182-0.3341 0.0551-0.67326-0.0511-0.98487-0.2124-0.62323-0.66494-1.2156-1.1611-1.8165-0.49612-0.6009-1.0437-1.1972-1.4553-1.716-0.41155-0.51881-0.63675-1.0001-0.63778-1.0923-0.0036-0.26741-0.22238-0.48172-0.4898-0.47922l-6.3e-5 2e-6c-0.2681 0.0023-0.48348 0.2217-0.48099 0.48979 0.0072 0.63319 0.40137 1.122 0.84746 1.6843 0.44608 0.56235 0.99503 1.1595 1.4676 1.7319s0.86111 1.133 0.99016 1.5117c0.0645 0.18932 0.065 0.31306 0.0423 0.38761-0.0227 0.07455-0.0626 0.1426-0.23785 0.23961-1.2939 0.7161-2.0878 1.5091-2.5177 2.3433-0.42986 0.83417-0.47531 1.6875-0.36118 2.449 0.11413 0.76145 0.37823 1.4461 0.57965 2.0138 0.20142 0.56765 0.30269 1.0236 0.26956 1.1892-0.04916 0.24598-0.12271 0.34141-0.16385 0.37527-0.04113 0.03386-0.08416 0.05411-0.22904 0.04052-0.28974-0.02716-0.86653-0.28776-1.5117-0.68888-1.2903-0.80226-2.8908-2.0868-4.3782-2.6304m0 0c-0.58798-0.2227-0.81921-0.2491-1.3037-0.49405 0.36584-0.14315 0.66911-0.411 0.85603-0.75607l2.905-5.374c0.2662-0.49308 0.26549-1.0869-0.0019-1.5794l-2.2218-4.0933c-0.29275-0.53932-0.85946-0.8736-1.4739-0.86937l-9.7e-5 4.8e-5c-0.61399 0.0046-1.1755 0.34656-1.4606 0.88948 0 0-1.3283 2.5296-2.6953 4.8552-0.34069 0.57962-0.61219 0.95707-0.93363 1.4627-0.16142-0.50254-0.33497-1.026-0.48425-1.5127-0.26864-0.87726-1.1989-1.3708-2.0775-1.1022-0.87784 0.26883-1.3714 1.197-1.1026 2.0736 0.43575 1.4206 0.92252 2.8764 1.3737 4.2845 0.07223 0.22539 0.20092 0.51791 0.49211 0.79529 0.2912 0.27738 0.76058 0.4729 1.1453 0.49277 0.76946 0.03979 1.0905-0.25778 1.329-0.43735 0.47698-0.3592 0.72758-0.70418 1.0505-1.1361 0.64588-0.86389 1.3651-2.0281 2.077-3.2391 0.65859-1.1204 0.78232-1.3959 1.2828-2.3114l0.34723 0.64135-2.4782 4.5831c-0.40899 0.76151-0.16465 1.7089 0.56185 2.1785 0.15485 0.35375 0.48193 0.67857 0.97881 0.9478 0.6226 0.33738 0.91301 0.42328 1.501 0.61164"
       color="#000000"
       fill="#a6cee3"
       stop-color="#000000"
       stroke="#000"
       stroke-linecap="round"
       stroke-linejoin="round"
       stroke-width=".176"
       style="-inkscape-stroke:none;font-variation-settings:normal"
       id="H3:2:HFD" /><path
       d="m99.266 66.138-0.05015 0.18084 0.13665 0.64292 0.67073 0.43109 0.25122 0.41832 0.70718 0.56807-0.0601 0.68684 0.36365 0.29546 0.6377 0.60282-0.0986 1.0288 0.5605 0.89434-0.7156 0.6589-0.47916-0.11549-0.63864 0.15805-0.46836 0.57783-0.26594 0.49181-0.07785 0.27799-0.16788 0.47258 0.09666 0.57028 0.21256 0.22489 0.0332 0.26972 0.14256 0.5563-0.0228 0.49127 0.19185 0.68314-0.24299 0.46997-0.18944 0.43132-0.30015 0.53012 0.09747 0.62698 0.4876 0.57134 0.0695 0.49165 0.25359 0.53006-0.0525 0.15893-0.18304 0.04768-0.36406-0.1594-0.56147-0.12864-0.92923-0.24098-0.67171-0.11823-0.46179-0.72907-0.94091-0.49293-0.95072-0.6501-0.72087-0.78701-1.2155 0.2207-0.83768-0.60298-0.5218-1.0971 0.84773-0.25119 0.74881-0.82819-1.0844-0.57713-0.30576-0.33691 1.1994-0.49715-0.12154-0.6712-1.1486-0.49641 0.5928-0.42488 1.0157-0.49304-0.69009-0.6525-0.87881-0.43391 0.99345-0.52053 0.58646-0.51963-0.42-1.0957 0.6931 0.04136-0.48441-0.03227-0.09282 1.2044-0.21489-0.17808 1.0517-0.19582 0.10898-1.2661 0.36701-0.0068-0.92565 0.81829-0.89902-0.66782 0.41395-1.1351-0.0721 0.52435-1.2187 0.4291-0.37144-1.1851 0.45314-0.54403-0.58406 0.9153-1.1653-0.2009 0.13352-1.3047 0.25297 0.02262-1.2404 0.3222-0.42058-1.1019 0.91684-0.82549 1.0979 0.18191 1.1807-0.25498-0.29901-0.34921 0.9508-0.08907-0.05137 0.43257 0.64085-0.44942 0.65105 0.92258-0.71662-0.28206-1.1039 0.14718 0.34869 1.2184 0.2734 0.24859-1.1701-0.46617-0.5978 0.75991 0.67931 1.0441-0.24053-0.23967-1.2843-0.09267 0.0038 1.0655 0.61701 0.75159-0.77936-0.43335-1.0599 0.2809 0.41781 1.2178 0.3237 0.2553-1.1922-0.36517-0.55851 0.71299 0.70739 1.0523-0.4113-0.14137-1.2499 0.03516 0.28075 0.97551 0.49997 0.72662-1.0887-0.19472-0.73881 0.39439 0.70471 1.1043-0.09966 0.21461-1.3-0.19604-0.03632 0.93138 0.69767 0.78292 1.0761-0.0392 1.2223-0.35907 0.29522-0.14292-0.37629-1.1367-0.54509 0.07219-0.41825-0.84028-1.2376 0.13311 0.36634-0.56199 0.49716-1.0669-1.0908-0.0543-0.7686 0.05792 0.71271-0.90297-0.08259-0.8197-1.2845 0.2199-0.31175-0.22923 0.77708-1.0541-0.64267-0.45119 0.99391-0.0542-0.12076 0.02694 0.10416 0.57635"
       fill="none"
       stroke="#1f78b4"
       stroke-linecap="round"
       stroke-linejoin="round"
       stroke-width=".176"
       id="H3:2:trajectory" /><path
       d="m76.071 72.537 3.132 1.6871c1.1769 0.6333 2.5822-0.3068 2.4423-1.6338l-0.69909-6.6298 0.4986 0.26836c0.80815 0.43488 1.8158 0.13441 2.2516-0.67142 0.43619-0.80679 0.13422-1.8145-0.67441-2.2506l-3.2704-1.7614c-0.19933-0.10775-0.41858-0.17373-0.64428-0.19389l3.45e-4 0.0015c-1.0427-0.09259-1.9099 0.7877-1.7999 1.827l0.70052 6.6304-0.49804-0.26878c-0.80855-0.43625-1.8176-0.13574-2.2536 0.67116-0.26844 0.49947-0.26288 1.1014 0.01475 1.5964 0.19494 0.26303 0.37014 0.5317 0.79952 0.72774z"
       color="#000000"
       fill="#b2df8a"
       stop-color="#000000"
       stroke="#000"
       stroke-linecap="round"
       stroke-linejoin="round"
       stroke-width=".176"
       style="-inkscape-stroke:none;font-variation-settings:normal"
       id="H4:1:HFD" /><path
       d="m77.888 70.264c-0.04508-0.4657-0.26354-0.87134-0.57965-1.147-0.31611-0.27563-0.70728-0.43582-1.1258-0.53736-0.83709-0.20309-1.8194-0.18442-2.752-0.13919-0.89516 0.04343-2.1146 0.03008-3.0533-0.14623-0.46932-0.08815-0.86697-0.22112-1.0976-0.36646-0.23067-0.14534-0.27776-0.22885-0.27485-0.3788 0.0026-0.13538 0.07222-0.269 0.21142-0.39289 0.13921-0.12389 0.34325-0.21413 0.4986-0.23256 0.15535-0.01844 0.21561 0.01644 0.24137 0.04757 0.02576 0.03112 0.0964 0.15986 0.0018 0.53736-0.06501 0.25978 0.09268 0.52311 0.35237 0.58846 0.25978 0.06501 0.52312-0.09268 0.58846-0.35237 0.1385-0.55242 0.091-1.0478-0.1938-1.3919-0.2848-0.34407-0.72746-0.43766-1.1047-0.39289l-4.2e-5 3e-6c-0.37722 0.04476-0.73526 0.20906-1.0289 0.47042s-0.52676 0.64384-0.5356 1.0994c-0.01018 0.52438 0.32304 0.96426 0.72764 1.2192 0.4046 0.25494 0.89664 0.39941 1.4341 0.50037 1.075 0.20192 2.3366 0.20788 3.2806 0.16209 0.90647-0.04397 1.831-0.04359 2.4754 0.11276 0.32222 0.07817 0.56501 0.19312 0.71531 0.32418 0.15031 0.13106 0.23004 0.26468 0.25371 0.50918"
       color="#000000"
       fill="#b2df8a"
       stop-color="#000000"
       stroke="#000"
       stroke-linecap="round"
       stroke-linejoin="round"
       stroke-width=".176"
       style="-inkscape-stroke:none;font-variation-settings:normal"
       id="H4:1:tail_N" /><path
       d="m69.732 68.331 0.55317-0.37798-0.05995-0.29651 0.12879-0.9928-0.03237-0.2669-0.61587 0.22116-0.33994 0.22711-0.21688 0.21624-0.2042 0.45893-0.24734 0.24134 0.3659 0.26419 0.38025 0.29043 0.46291 0.28427 0.45343 0.29118 0.58646 0.06894 0.62209-0.038 0.61503-0.1853 0.78381-0.14005 0.63254 0.02838 0.71596-0.03195 0.67474 0.29288 0.47506 0.12418 0.92933 0.4472 0.90848-0.19261-0.26806-0.57876 0.96725 0.59775-0.59134 1.1424-1.0388-0.51929 0.67425 0.11634-0.50523 1.1748 0.47747 1.0504-0.82354-0.03342 0.34604-1.2239 1.2653 0.34346-0.27458 1.0653-0.62462-0.73693 1.0265-0.81798 0.79612 1.029-0.79385 0.41048 0.09716-1.183 1.2931 0.16688-0.11681 1.1294 0.20807 0.82316-0.53241 1.1974 0.34793 0.51022 0.20578-0.59663 0.5625 0.44683-0.66862-0.18536 0.99248-0.70954-0.14356-0.94254-1.0214-0.61406 0.62434-0.37323 1.0578-0.34356-0.73937-0.71199-0.57182-0.60604 1.1977-0.30453 0.40128-0.45172-1.0973-0.7062 0.13585-0.53187 1.2271-0.37704-0.36289-0.48469-0.9963-0.6696 0.73706-0.47119 0.87831-0.47075-0.88707-0.59822-0.73875-0.46015 1.0431-0.49521 0.29781-0.7289-1.2497-0.33474-0.15304-0.40507 1.1342-0.65759-0.45745-0.61616-1.1377-0.21032 0.61867-0.52561 0.73299-0.74712-1.1093-0.44179-0.39306-0.22261-1.061 0.75437-0.59703 0.87948-0.56354 0.56134 0.72178 0.79363-0.25987-0.15781 0.16444 0.73299 0.93494-0.83213 0.70298 0.24101-0.05494 1.2782 0.35679-0.25492 1.0277-0.69942 0.33363 0.97031-0.07148 0.89191 0.69727-0.77904 0.93078-0.12298 0.03511 1.2995 0.09623 0.15645-1.1527 0.59237-0.63684-0.95231-1.31 0.03988-0.63203-0.52262-1.2477-0.36638-0.14693-0.62051 0.48863-1.1456 0.20843-0.59023"
       fill="none"
       stroke="#33a02c"
       stroke-linecap="round"
       stroke-linejoin="round"
       stroke-width=".176"
       id="H4:1:trajectory" /><path
       d="m92.635 59.986c0.78938-1.214 1.9109-2.4912 3.0639-3.2753 1.1529-0.78407 2.242-1.0619 3.1925-0.52503 0.40015 0.22602 0.58967 0.71842 0.66069 1.554 0.07099 0.83554-1.72e-4 1.9238-0.0018 3.0674-0.0018 1.1436 0.06603 2.3514 0.46865 3.4638 0.40267 1.1124 1.1681 2.1253 2.4666 2.7714 0.24031 0.12019 0.53253 0.02225 0.65189-0.21847 0.11899-0.23987 0.0212-0.53079-0.21848-0.65012-1.0812-0.53799-1.6506-1.3038-1.9874-2.234-0.33671-0.93018-0.41204-2.0296-0.41051-3.1308 2e-3 -1.1012 0.0795-2.1948-2e-3 -3.1502-0.0812-0.95541-0.34522-1.8637-1.1505-2.3186-0.67942-0.38377-1.4066-0.4646-2.1266-0.33828h9e-5c-0.71992 0.12633-1.4337 0.45956-2.0896 0.90559-1.3117 0.89205-2.4846 2.2475-3.3317 3.5501"
       color="#000000"
       fill="#fb9a99"
       stop-color="#000000"
       stroke="#000"
       stroke-linecap="round"
       stroke-linejoin="round"
       stroke-width=".176"
       style="-inkscape-stroke:none;font-variation-settings:normal"
       id="H2B:1:tail_N" /><path
       d="m92.147 58.741c-0.10699 0.0056-0.2132 0.02153-0.31714 0.04753-0.88917 0.23432-1.42 1.1437-1.1853 2.0304l0.14252 0.54431-6.2911-2.2256c-1.2603-0.44552-2.507 0.70011-2.1658 1.9901l0.94548 3.5837c0.10186 0.3862 0.33992 0.72265 0.67048 0.94762l2.45e-4 -8.1e-4c0.39862 0.27146 0.89595 0.35661 1.3629 0.23332 0.88821-0.23456 1.4186-1.1428 1.1848-2.0289l-0.14363-0.54697 6.2915 2.2259c1.2593 0.44491 2.5053-0.6987 2.1661-1.9881l-0.94577-3.5857c-0.09841-0.36783-0.32062-0.69059-0.62936-0.91414-0.31201-0.22078-0.68144-0.30756-1.0859-0.31266z"
       color="#000000"
       fill="#fb9a99"
       stop-color="#000000"
       stroke="#000"
       stroke-linecap="round"
       stroke-linejoin="round"
       stroke-width=".176"
       style="-inkscape-stroke:none;font-variation-settings:normal"
       id="H2B:1:HFD" /><path
       d="m85.1 49.867c-8.4227 0.01503-15.636 7.0757-15.702 15.672l1.702 0.01503c0.05875-7.6543 6.5359-13.977 14.003-13.991 7.4839-0.01503 13.668 6.1709 14.041 13.703l1.6958-0.18511c-0.46645-8.3603-7.3498-15.228-15.739-15.213z"
       color="#000000"
       fill-rule="evenodd"
       opacity=".5"
       style="-inkscape-stroke:none"
       id="DNA:segment_1" /><path
       d="m92.226 67.286c-0.14185 0.27158-0.4402 0.67307-0.8034 1.1593-0.72641 0.97245-1.7125 2.3163-2.2869 4.121-0.38961 1.2242-0.36488 2.2805-0.08457 3.0868s0.82106 1.3839 1.4958 1.5346c0.94153 0.21026 1.9697-0.26106 3.0797-0.83688 1.11-0.57582 2.277-1.3183 3.2577-1.8746 0.23386-0.13207 0.31598-0.42898 0.18323-0.66246-0.13268-0.23322-0.42944-0.31451-0.66246-0.18147-1.0147 0.57566-2.173 1.3108-3.226 1.857-1.053 0.54622-2.023 0.83938-2.4208 0.75055-0.24129-0.05388-0.59209-0.33327-0.79107-0.90559-0.19899-0.57232-0.24373-1.4144 0.09338-2.4736 0.51922-1.6314 1.4181-2.8707 2.1389-3.8355 0.36038-0.48243 0.67698-0.88908 0.88621-1.2897 0.10462-0.2003 0.18668-0.40352 0.2079-0.63603"
       color="#000000"
       fill="#ff9"
       stop-color="#000000"
       stroke="#000"
       stroke-linecap="round"
       stroke-linejoin="round"
       stroke-width=".176"
       style="-inkscape-stroke:none;font-variation-settings:normal"
       id="H2A:1:tail_C" /><path
       d="m91.235 57.356c0.02435 0.10399 0.03863 0.21008 0.04263 0.31679 0.0227 0.91615-0.70038 1.676-1.6145 1.6966l-0.55656 0.01234 4.4033 5.9384c0.77661 1.0833 0.02625 2.594-1.3035 2.6242l-3.6934 0.08632c-0.39801 0.0093-0.78623-0.1255-1.0934-0.37974l7.24e-4 -4.3e-4c-0.37062-0.30654-0.5903-0.75914-0.60198-1.2403-0.02221-0.9153 0.69995-1.6744 1.6132-1.6957l0.56352-0.01382-4.4037-5.9387c-0.77985-1.0807-0.03121-2.5901 1.2973-2.6222l3.6954-0.08662c0.37947-0.0076 0.75018 0.11589 1.05 0.34964 0.28004 0.22203 0.48819 0.53034 0.60093 0.95314z"
       color="#000000"
       fill="#ff9"
       stop-color="#000000"
       stroke="#000"
       stroke-linecap="round"
       stroke-linejoin="round"
       stroke-width=".176"
       style="-inkscape-stroke:none;font-variation-settings:normal"
       id="H2A:1:HFD" /><path
       d="m89.38 56.215c0.12373-0.10744 0.23364-0.24057 0.31998-0.38879 0.17862-0.30635 0.27413-0.68481 0.31483-1.0869 0.08171-0.80746-0.07265-1.7382 0.14019-2.7299 0.10117-0.47137 0.2934-0.9515 0.63573-1.3501 0.3473-0.40391 0.84226-0.70558 1.4134-0.74844 0.32864-0.02468 0.65719 0.04022 0.95215 0.18687 0.2948 0.14704 0.54471 0.37057 0.72362 0.64751 0.17892 0.27696 0.2808 0.5976 0.29356 0.92753 0.01275 0.32993-0.06414 0.65609-0.22087 0.94677-0.12374 0.2308-0.4107 0.31758-0.64071 0.19375-0.2294-0.12435-0.31451-0.41163-0.19014-0.64176 0.07497-0.13838 0.11358-0.30276 0.10764-0.45997-0.0061-0.1572-0.05903-0.31925-0.14442-0.4512-0.08516-0.13199-0.20916-0.24292-0.34969-0.3128-0.14059-0.0698-0.3052-0.10252-0.46179-0.09079-0.27149 0.02047-0.56229 0.18213-0.76686 0.42014-0.20932 0.24345-0.35138 0.5725-0.42789 0.929-0.16312 0.76005-0.0239 1.6518-0.12258 2.6267-0.04955 0.48912-0.16791 1.0036-0.44048 1.4711-0.2656 0.45561-0.67791 0.85269-1.2151 1.0352"
       color="#000000"
       fill="#ff9"
       stop-color="#000000"
       stroke="#000"
       stroke-linecap="round"
       stroke-linejoin="round"
       stroke-width=".176"
       style="-inkscape-stroke:none;font-variation-settings:normal"
       id="H2A:1:tail_N" /><path
       d="m92.518 52.593 0.41389-0.54097 0.14354-0.28711 0.13552-0.56575 0.14468-0.50568-0.30377-0.24903-0.1229-0.37252-0.22047-0.28348 0.06491-0.27928-0.67433 0.28502-0.53249 0.85612 0.42965 1.0767-0.57739 0.95722-0.59384 0.97469 0.21295 1.2325-0.44592 0.63125-1.1954 0.50849 0.49298 1.21 0.61576-0.30165-1.0767-0.6125-0.67028 1.1063 0.9372 0.72789 0.293 0.59229 1.0772 0.28267-0.65789 0.06029-0.03396-1.0887-1.1976-0.51235 0.25975-0.94992 0.3326 0.87387-1.0746 0.71298-0.70456-1.1015 0.56109-0.32456-0.18964 1.2105-1.2605-0.01947-0.15429-1.1834 0.56834 0.33637-0.61053 1.1162-0.85801-0.16473-0.81141 0.41924-0.77614-1.0041-0.22826-1.2695 0.45958-0.28175 0.69909 0.54124-0.17068-0.3034 1.0393-0.16735-0.25593 0.99786-0.06085 0.88817 1.2931 0.04701 0.27675 0.04747-0.80388 1.0232 0.46133 0.58604 1.2643-0.173-0.23667 0.53121-0.5423 1.0606 1.0047 0.14726 0.82667-0.12109-0.67797 0.88094 4.32e-4 0.87184 1.2812-0.22636 0.24144 0.23663-0.74044 1.0875 0.63122 0.53396 1.192-0.33637-0.2463 0.54986-0.33245 1.1305 1.0041-0.04722 0.8173-0.29412-0.40419 1.0615 0.18926 0.72889 1.2079-0.48514 0.30736 0.21337-0.45963 1.223 0.80465 0.17196 0.95791-0.55969 0.10091-0.99894 0.16184-1.2612-0.45914-0.49608-1.207 0.14947-0.0013 0.46758-1.0077 0.19794-0.14119 1.243-0.273-0.42783-0.89806-0.82594-0.5528 0.9949-0.05027 0.71657-0.52969-1.0255-0.95956-0.09256-0.2344 1.2761-0.05816 0.01621-1.2564-0.1639-0.89746 0.33778-0.61142-1.1287 1.0602-0.63216 0.15262 0.82091-1.2072-0.27678 0.19836-1.2745 1.0606 0.06077-0.4713 0.88918 0.69545 0.44737 0.94571-0.84276 1.1902 0.35915 1.0432-0.38606 1.1039-0.05669 0.87463 0.85881-0.89287 0.33638-0.12126 1.2686-0.89457 0.75558-0.31567 0.42849 0.5141 1.1756-0.96148 0.87963-0.22156 1.2463-1.1603 0.60736-0.03218 0.92684-0.35221 0.97715 1.1042-0.14301 0.76462 0.20502 0.46162 1.1366-0.38754 0.60227 1.0345 0.06822 0.6422-0.8348 0.67894-0.25775 0.57663-0.71998 0.73251-0.03633 0.37592-0.31469 0.6274-0.72947 1.0419 0.09535 0.09557-0.79416 0.05891 0.10819"
       fill="none"
       stroke="#b3b300"
       stroke-linecap="round"
       stroke-linejoin="round"
       stroke-width=".176"
       id="H2A:1:trajectory" /><path
       d="m 86.633833,61.8865 c 0.55149,-1.4873 1.250397,-4.8592 1.185237,-6.4117 -0.01091,-0.26757 -0.23646,-0.47575 -0.50404,-0.46519 -0.26874,0.01065 -0.47756,0.23782 -0.46561,0.5065 0.06071,1.4468 -0.641687,4.7252 -1.126407,6.0325"
       color="#000000"
       fill="#fb9a99"
       stop-color="#000000"
       stroke="#000000"
       stroke-linecap="round"
       stroke-linejoin="round"
       stroke-width="0.176"
       style="font-variation-settings:normal;-inkscape-stroke:none"
       id="H2B:1:tail_C"
       sodipodi:nodetypes="ccccc" /><path
       d="m103.86 66.16-1.1167-0.26126-1.0627-0.0847 0.53015-0.24423 0.6021 0.43828 0.16953 0.26187-0.69425 0.22073-0.54752-0.20259-0.0549-0.84499-0.56925-0.67529 0.24577-0.75956-0.35327-0.49333-0.0964-0.79132-0.45053-0.2447-0.48567-0.06794-0.10599-0.80446-0.42244-0.58429 0.01524-0.80095-0.22602-1.0597 0.11647-0.97503-0.02995-0.8328 0.21068-0.89195 0.19237-0.66012-0.78971-0.44791-0.97836 0.04912-0.67641 0.80609-1.2311 0.05794-0.70842 0.36064-0.70106 0.94768-1.0976-0.12386-0.0044 0.28776-0.61138 1.0411-0.7765 0.0525-0.03143 1.0077-0.45732 0.28882 1.1315 0.61435 0.49775-0.82925-1.1212-0.02123-0.08658 1.3102 1.2136 0.05203-0.35843-0.81217-1.0224 0.78028 0.79248 1.0508 0.76383-0.55563-1.0578-0.18664-0.40066 1.239 1.1738 0.53102 1.096-0.68347 0.83554 0.92716-0.61346 0.49145 0.34695-0.42626-0.51553 0.05495 0.47199 0.18648-0.16675-0.85025-0.69104 0.90901-0.78725 0.16882-0.13281-1.3-0.38187-0.04117-0.91133 0.90291-0.41388-0.7132-0.06724-1.058-0.70806 0.68363-0.78615 0.4283-0.2174-1.1993-0.28018-0.47704-0.82317 0.9935-0.62508-0.1325-0.08694-1.2991-0.61794 0.15366-0.80794 0.911-0.37904-0.76563-0.05133-1.0921-0.7062 0.6095-0.88976 0.40395-0.03598-1.1908-0.19526-0.52933-1.0056 0.81602-0.49915-0.26061 0.02015-1.2893-0.52807 0.17702-0.9605 0.77918-0.29795-0.91387 0.11155-0.94983 0.9039-0.6544 1.0027-0.70708 0.80636 0.18176 0.64388 1.0661 0.0618-0.08608 0.45035 0.73447-1.1868 0.56679 0.14512 0.46253 1.1954 0.46004-0.47237 0.55682-0.96933 0.56474 0.82063 0.38761 0.79419 0.54943-1.0243 0.63231-0.35942 0.43642 1.196 0.37442 0.5749 0.51956-0.31197 1.0857-0.62089-0.2151 0.9397 0.07559 0.8339-0.71399-0.93548-0.86766-0.23437-0.24372 1.2614-0.26336 0.12351-0.70684-1.0308-0.73805 0.50085-0.16827 1.1594-0.37739-0.56869-0.81859-0.75151-0.49906 1.0467-0.16474 0.67068-0.60548-0.98137-0.83468-0.18622-0.1926 1.2689-0.29528-0.01331-0.77398-1.063-0.63086 0.44381-0.23521 0.74708-0.52436 0.0032-0.83185"
       fill="none"
       stroke="#e31a1c"
       stroke-linecap="round"
       stroke-linejoin="round"
       stroke-width=".176"
       id="H2B:1:trajectory" /></g><metadata
     id="metadata1"><rdf:RDF><cc:Work
         rdf:about=""><cc:license
           rdf:resource="http://creativecommons.org/licenses/by-sa/4.0/" /><dc:creator><cc:Agent><dc:title>Benjamin C. Buchmuller</dc:title></cc:Agent></dc:creator><dc:rights><cc:Agent><dc:title>Benjamin C. Buchmuller</dc:title></cc:Agent></dc:rights><dc:publisher><cc:Agent><dc:title>Benjamin C. Buchmuller</dc:title></cc:Agent></dc:publisher><dc:title>Nucleosome</dc:title><dc:date>2026-03-15</dc:date></cc:Work><cc:License
         rdf:about="http://creativecommons.org/licenses/by-sa/4.0/"><cc:permits
           rdf:resource="http://creativecommons.org/ns#Reproduction" /><cc:permits
           rdf:resource="http://creativecommons.org/ns#Distribution" /><cc:requires
           rdf:resource="http://creativecommons.org/ns#Notice" /><cc:requires
           rdf:resource="http://creativecommons.org/ns#Attribution" /><cc:permits
           rdf:resource="http://creativecommons.org/ns#DerivativeWorks" /><cc:requires
           rdf:resource="http://creativecommons.org/ns#ShareAlike" /></cc:License></rdf:RDF></metadata></svg>
